<?xml version="1.0" standalone="no"?>
<!DOCTYPE svg PUBLIC "-//W3C//DTD SVG 20010904//EN"
 "http://www.w3.org/TR/2001/REC-SVG-20010904/DTD/svg10.dtd">
<svg version="1.0" xmlns="http://www.w3.org/2000/svg"
 width="512.000000pt" height="512.000000pt" viewBox="0 0 512.000000 512.000000"
 preserveAspectRatio="xMidYMid meet">

<g transform="translate(0.000000,512.000000) scale(0.100000,-0.100000)"
fill="#000000" stroke="none">
<path d="M2514 4516 c-33 -15 -62 -50 -87 -106 -9 -19 -36 -57 -60 -85 l-45
-49 -124 -7 c-359 -21 -799 -135 -1118 -292 -149 -73 -225 -120 -244 -150 -8
-12 -16 -55 -19 -94 -2 -40 -9 -78 -14 -85 -5 -7 -27 -56 -47 -108 -68 -174
-51 -159 -144 -130 -35 11 -70 20 -76 20 -8 0 -31 -62 -59 -162 -114 -406
-186 -665 -189 -683 -2 -16 3 -21 27 -23 20 -2 26 0 17 6 -9 6 -11 18 -6 36 4
19 9 24 14 15 12 -19 40 14 40 46 0 20 -4 26 -15 21 -8 -3 -15 -1 -15 4 0 6
14 10 30 10 25 0 30 4 30 24 0 14 5 28 10 31 6 3 10 2 10 -4 0 -11 -46 -133
-77 -203 -17 -39 -39 -53 -28 -18 7 22 -20 29 -28 8 -4 -10 -6 -10 -6 0 -2 28
-19 9 -30 -34 -14 -54 -8 -65 16 -37 21 23 53 37 53 22 0 -21 -30 -79 -41 -79
-8 0 -8 4 1 15 11 13 8 15 -17 15 -28 0 -31 -4 -51 -72 -22 -76 -21 -93 8 -85
15 4 17 1 10 -22 -25 -83 -22 -81 -108 -81 -81 0 -100 -8 -114 -50 -11 -31 11
-187 36 -263 49 -146 99 -228 204 -335 181 -185 396 -262 691 -249 245 11 420
85 581 247 145 145 228 320 246 523 5 64 4 75 -15 99 -20 25 -28 27 -104 30
-67 2 -82 6 -85 20 -4 21 39 43 93 47 22 2 40 4 41 4 8 12 12 57 5 53 -5 -4
-12 -2 -16 4 -3 5 3 10 14 10 12 0 21 6 21 14 0 8 3 21 6 30 5 12 -1 16 -24
16 -17 0 -43 5 -57 12 -22 10 -25 17 -25 60 0 26 -4 48 -10 48 -5 0 -10 -12
-10 -26 0 -21 -4 -24 -20 -19 -13 4 -20 2 -20 -7 -1 -7 -5 -47 -10 -88 -5 -49
-5 -79 2 -87 5 -7 8 -17 6 -23 -5 -15 -52 83 -92 192 -38 104 -45 134 -22 102
17 -22 21 -19 30 19 5 22 3 27 -12 27 -10 0 -23 -5 -30 -12 -15 -15 -12 -19
-56 87 -50 120 -51 125 -32 125 8 0 23 11 32 25 15 23 18 24 34 10 21 -19 30
-10 30 32 0 43 -23 53 -50 22 -16 -20 -19 -21 -20 -6 0 13 -9 17 -39 17 -21 0
-44 6 -50 14 -12 14 -93 233 -94 253 0 7 -6 14 -14 17 -7 3 -13 12 -13 21 0 8
-4 23 -9 33 -28 50 -172 435 -169 450 3 18 199 125 298 163 30 11 69 27 85 34
65 30 264 87 400 116 271 58 534 87 543 61 2 -6 21 -33 43 -60 l39 -50 0
-1301 0 -1301 -302 0 c-316 0 -345 -3 -434 -46 -174 -83 -313 -336 -314 -572
0 -54 4 -67 25 -88 l24 -24 1172 2 1171 3 19 24 c33 41 22 183 -26 322 -53
155 -168 290 -291 344 l-69 30 -322 3 -323 3 0 1304 0 1304 29 33 c15 18 33
43 40 56 11 20 19 22 90 22 78 0 375 -45 501 -76 275 -67 512 -157 693 -262
53 -31 70 -56 50 -75 -3 -4 -47 -110 -97 -235 l-91 -227 -140 -79 c-486 -274
-615 -349 -615 -354 0 -4 69 -128 153 -277 l153 -270 -54 -5 c-79 -8 -85 -20
-78 -150 7 -122 16 -158 64 -260 51 -107 101 -177 180 -254 124 -121 245 -185
415 -222 90 -19 352 -18 427 1 123 31 187 57 275 113 226 142 384 412 385 655
0 64 -3 80 -20 97 l-20 20 25 12 c22 10 25 18 25 61 0 44 -10 68 -94 216 -52
91 -169 301 -261 466 -92 165 -185 332 -207 370 -22 39 -51 89 -65 113 -24 43
-25 43 -50 27 -13 -9 -26 -15 -27 -13 -22 34 -106 273 -106 301 0 77 -23 101
-180 185 -338 179 -803 309 -1193 331 l-128 8 -45 49 c-24 27 -53 67 -64 90
-44 89 -120 129 -186 100z m85 -70 c10 -12 3 -15 -36 -18 -57 -5 -65 -1 -39
18 25 18 60 18 75 0z m12 -98 c97 -28 157 -122 144 -223 -6 -48 -12 -61 -51
-100 -25 -25 -54 -45 -64 -45 -10 0 -22 -4 -25 -10 -11 -18 -97 -11 -143 11
-51 25 -97 89 -107 149 -14 82 39 174 120 211 47 22 74 23 126 7z m-317 -146
c-1 -6 -2 -25 -2 -41 -2 -29 -4 -30 -69 -36 -342 -33 -634 -100 -908 -207
-120 -47 -307 -137 -330 -159 -5 -5 -12 -9 -16 -9 -8 0 -39 57 -39 71 0 4 39
29 88 56 281 153 653 265 1052 317 201 27 226 28 224 8z m726 -3 c235 -26 497
-84 715 -159 109 -37 438 -190 450 -210 3 -4 -2 -24 -10 -45 l-16 -36 -32 19
c-89 52 -132 74 -252 125 -217 91 -425 151 -675 192 -131 22 -315 45 -355 45
-11 0 -15 11 -15 45 l0 46 53 -6 c28 -3 90 -10 137 -16z m-425 -313 c17 0 38
4 48 8 16 8 17 -56 17 -1267 l0 -1275 -84 -7 c-46 -4 -89 -6 -94 -4 -6 3 -11
465 -14 1282 l-5 1277 51 -7 c28 -4 65 -7 81 -7z m1699 -355 c27 -67 47 -123
45 -125 -2 -1 -64 -37 -138 -79 -126 -72 -158 -85 -134 -55 6 7 19 38 30 68
57 155 129 320 138 317 5 -2 32 -59 59 -126z m-3290 -135 c53 -132 96 -243 96
-248 0 -4 14 -37 30 -71 17 -35 30 -68 30 -73 1 -5 9 -27 20 -49 13 -29 17
-52 13 -82 -4 -31 -2 -43 7 -43 21 0 58 -51 71 -99 7 -25 26 -75 42 -111 36
-82 43 -98 55 -135 6 -16 33 -82 61 -145 28 -62 51 -124 51 -137 l0 -23 -192
0 -193 0 54 53 c29 29 62 69 73 88 11 19 17 25 13 15 -4 -14 2 -12 23 10 15
16 26 33 23 38 -2 5 1 6 8 1 18 -11 81 26 81 47 0 24 -21 23 -53 -2 -42 -33
-40 -23 3 16 32 29 38 39 29 50 -8 10 -24 13 -48 9 l-36 -5 38 17 c30 15 35
21 25 31 -14 14 -40 16 -54 4 -5 -5 -22 -5 -39 -1 -16 3 -24 7 -17 8 6 0 12 6
12 13 0 6 15 24 33 39 17 16 26 28 20 29 -8 0 -13 13 -13 29 0 35 -15 48 -36
30 -11 -9 -14 -22 -9 -46 5 -28 1 -38 -34 -76 -38 -41 -39 -43 -20 -55 24 -15
59 -71 59 -93 0 -10 -11 -19 -27 -22 -16 -3 -37 -9 -47 -13 -16 -6 -18 -4 -13
9 3 9 2 17 -3 17 -18 0 -30 -40 -30 -103 0 -50 -4 -68 -19 -81 -17 -16 -20
-15 -50 10 -29 24 -37 26 -89 21 -45 -5 -60 -11 -75 -32 -24 -33 -40 -32 -71
6 -30 36 -36 107 -11 133 20 20 19 37 -2 30 -16 -5 -16 -4 1 10 23 19 14 46
-16 46 -16 0 -19 3 -10 8 9 6 6 12 -13 20 -15 7 -25 8 -25 2 0 -6 4 -10 9 -10
33 0 11 -88 -32 -130 -36 -35 -105 -54 -144 -39 -37 14 -73 48 -73 69 0 9 -11
22 -25 28 -14 6 -25 16 -25 22 0 5 -7 10 -15 10 -18 0 -18 4 -6 28 6 9 24 55
41 102 37 101 73 195 105 270 13 30 38 92 55 138 24 60 37 82 50 82 25 0 44
26 34 47 -7 16 -8 15 -11 -4 -5 -27 -23 -31 -22 -5 0 9 9 35 19 57 l19 40 0
-30 c1 -16 4 -40 7 -52 l6 -22 52 26 c76 38 133 88 141 124 5 22 11 29 22 25
12 -5 14 -1 8 21 -8 34 0 28 -61 45 -47 14 -54 14 -88 -3 -20 -9 -36 -15 -36
-13 0 9 43 130 50 139 4 6 13 28 20 49 22 70 62 148 70 139 5 -4 52 -116 104
-247z m-365 -91 c22 13 16 -34 -10 -92 -21 -46 -34 -59 -44 -43 -3 5 -16 10
-29 10 -12 0 -25 2 -28 5 -8 9 51 65 65 62 13 -2 14 16 2 60 -6 27 -6 27 14 9
11 -10 25 -15 30 -11z m111 -46 c0 -11 -4 -18 -10 -14 -5 3 -7 12 -3 20 7 21
13 19 13 -6z m-189 -147 c15 3 25 -32 12 -41 -6 -3 -15 -15 -21 -26 -10 -17
-11 -15 -8 17 3 31 -1 40 -20 53 -13 9 -24 21 -24 27 0 6 11 1 24 -11 13 -12
29 -21 37 -19z m-120 -160 c8 -10 18 -26 22 -36 4 -9 11 -14 17 -11 5 3 10 0
10 -7 -1 -18 -38 -96 -39 -80 -1 7 5 21 11 32 10 16 10 22 -1 32 -11 10 -12
10 -7 1 9 -16 -40 -18 -49 -3 -8 13 4 90 14 90 3 0 13 -8 22 -18z m61 -24 c-7
-7 -12 -8 -12 -2 0 14 12 26 19 19 2 -3 -1 -11 -7 -17z m-60 -150 c-7 -7 -12
-8 -12 -2 0 14 12 26 19 19 2 -3 -1 -11 -7 -17z m3751 -75 c-7 -2 -21 -2 -30
0 -10 3 -4 5 12 5 17 0 24 -2 18 -5z m431 -2 c3 -5 -1 -11 -9 -14 -9 -4 -12
-1 -8 9 6 16 10 17 17 5z m-387 -7 c-3 -3 -12 -4 -19 -1 -8 3 -5 6 6 6 11 1
17 -2 13 -5z m413 -54 c0 -5 -12 -10 -27 -9 -25 0 -26 1 -8 9 27 12 35 12 35
0z m-200 -219 c0 7 21 -7 48 -32 26 -25 61 -51 77 -58 l30 -13 -32 32 c-35 34
-43 53 -18 44 8 -4 15 -9 15 -13 0 -4 16 -23 35 -43 29 -29 32 -37 19 -42 -30
-11 -69 -6 -94 14 -27 21 -45 26 -35 10 10 -17 -17 -11 -38 8 -19 16 -19 16
-13 -5 6 -18 3 -23 -10 -23 -20 0 -64 38 -64 54 0 6 -11 25 -25 41 -19 23 -24
26 -25 13 0 -21 -30 -24 -30 -4 0 8 -8 17 -17 19 -10 3 -1 5 19 6 20 0 47 -3
60 -8 13 -4 36 -11 51 -15 27 -6 27 -6 16 16 -12 23 -12 23 10 4 15 -14 21
-15 21 -5z m-4049 -37 c-39 -49 -17 -121 24 -80 21 20 20 21 21 -10 2 -29 40
-74 63 -74 14 0 87 25 175 59 26 11 25 7 -17 -32 -26 -24 -47 -49 -47 -55 0
-9 -43 -12 -155 -12 -176 0 -170 -4 -132 82 13 29 34 79 47 111 15 38 26 55
33 48 6 -6 2 -19 -12 -37z m-120 -7 c-10 -9 -11 -8 -5 6 3 10 9 15 12 12 3 -3
0 -11 -7 -18z m-21 -57 c0 -5 -5 -10 -11 -10 -5 0 -7 5 -4 10 3 6 8 10 11 10
2 0 4 -4 4 -10z m4170 -40 c0 -6 -11 -8 -27 -4 -40 10 -41 14 -5 14 18 0 32
-5 32 -10z m138 0 c67 0 49 -17 -20 -19 -68 -1 -98 5 -98 21 0 7 14 8 38 4 20
-3 56 -6 80 -6z m-3772 -55 l22 -45 -91 0 -92 0 39 33 c44 36 76 56 91 56 6 0
20 -20 31 -44z m3844 21 c0 -9 -40 -13 -46 -5 -3 5 6 9 20 9 14 0 26 -2 26 -4z
m25 -27 c4 -6 19 -7 35 -4 16 3 31 2 35 -4 4 -7 -14 -11 -54 -11 -56 0 -79 11
-48 23 19 8 25 8 32 -4z m275 -9 c0 -5 -4 -10 -10 -10 -5 0 -10 5 -10 10 0 6
5 10 10 10 6 0 10 -4 10 -10z m-473 -6 c-3 -3 -12 -4 -19 -1 -8 3 -5 6 6 6 11
1 17 -2 13 -5z m111 -1 c-15 -2 -42 -2 -60 0 -18 2 -6 4 27 4 33 0 48 -2 33
-4z m-1220 -933 c191 -44 337 -252 358 -510 l7 -80 -1158 0 -1158 0 6 78 c16
198 114 383 247 467 85 54 85 54 900 54 464 0 772 -3 798 -9z"/>
<path d="M2635 4310 c3 -5 8 -10 11 -10 2 0 4 5 4 10 0 6 -5 10 -11 10 -5 0
-7 -4 -4 -10z"/>
<path d="M2656 4292 c-3 -5 1 -26 9 -48 l14 -39 1 33 c0 17 -5 32 -11 32 -6 0
-9 7 -5 15 6 16 1 21 -8 7z"/>
<path d="M2701 4214 c0 -11 3 -14 6 -6 3 7 2 16 -1 19 -3 4 -6 -2 -5 -13z"/>
<path d="M2720 4205 c0 -8 4 -15 10 -15 5 0 7 7 4 15 -4 8 -8 15 -10 15 -2 0
-4 -7 -4 -15z"/>
<path d="M2681 4125 c-1 -11 -4 -31 -7 -45 -5 -22 -4 -23 6 -7 6 10 9 30 7 45
-3 18 -5 20 -6 7z"/>
<path d="M2720 4079 c0 -5 5 -7 10 -4 6 3 10 8 10 11 0 2 -4 4 -10 4 -5 0 -10
-5 -10 -11z"/>
<path d="M2650 4036 c0 -9 5 -16 10 -16 6 0 10 4 10 9 0 6 -4 13 -10 16 -5 3
-10 -1 -10 -9z"/>
<path d="M4150 3822 c6 -13 14 -21 18 -18 3 4 -2 14 -12 24 -18 16 -18 16 -6
-6z"/>
<path d="M2580 2635 c0 -681 2 -1236 5 -1233 7 6 7 2460 0 2466 -3 3 -5 -552
-5 -1233z"/>
<path d="M2635 3860 c3 -5 8 -10 11 -10 2 0 4 5 4 10 0 6 -5 10 -11 10 -5 0
-7 -4 -4 -10z"/>
<path d="M2613 3220 c0 -25 2 -35 4 -22 2 12 2 32 0 45 -2 12 -4 2 -4 -23z"/>
<path d="M2613 2795 c0 -27 2 -38 4 -22 2 15 2 37 0 50 -2 12 -4 0 -4 -28z"/>
<path d="M2580 1370 c0 -5 5 -10 11 -10 5 0 7 5 4 10 -3 6 -8 10 -11 10 -2 0
-4 -4 -4 -10z"/>
<path d="M940 3172 c-14 -2 -36 -15 -49 -29 -37 -36 -19 -58 47 -58 28 1 54 4
57 7 4 3 -2 24 -12 45 -15 32 -22 38 -43 35z"/>
<path d="M1076 3114 c-9 -23 -8 -24 14 -24 11 0 20 2 20 4 0 12 -13 36 -20 36
-4 0 -11 -7 -14 -16z"/>
<path d="M761 3081 c-29 -40 -26 -61 9 -74 21 -8 30 -18 30 -34 0 -29 36 -32
45 -3 4 12 11 17 18 13 7 -4 6 0 -2 10 -15 18 -8 49 10 45 6 -2 14 3 16 10 3
7 -1 10 -10 6 -15 -5 -31 21 -22 36 4 6 -40 20 -66 20 -4 0 -17 -13 -28 -29z"/>
<path d="M1147 2960 c-3 -12 0 -20 8 -20 8 0 11 8 8 20 -3 11 -7 20 -8 20 -1
0 -5 -9 -8 -20z"/>
<path d="M776 2848 c3 -5 10 -6 15 -3 13 9 11 12 -6 12 -8 0 -12 -4 -9 -9z"/>
<path d="M580 2825 c0 -12 13 -15 59 -15 59 0 86 12 55 24 -9 3 -38 6 -65 6
-37 0 -49 -4 -49 -15z"/>
<path d="M1130 2782 c0 -47 0 -48 33 -47 17 0 37 -7 44 -15 24 -29 13 6 -12
40 -14 19 -25 41 -25 49 0 14 -1 14 -10 1 -8 -13 -10 -12 -10 3 0 9 -4 17 -10
17 -5 0 -10 -22 -10 -48z"/>
<path d="M765 2809 c-4 -6 -5 -12 -2 -15 2 -3 7 2 10 11 7 17 1 20 -8 4z"/>
<path d="M860 2800 c-8 -26 -7 -41 2 -32 6 6 8 16 5 24 -3 7 -6 11 -7 8z"/>
<path d="M577 2739 c-23 -13 -47 -62 -47 -95 0 -19 -4 -25 -15 -20 -9 3 -15 0
-15 -9 0 -8 -4 -15 -10 -15 -5 0 -10 -4 -10 -10 0 -5 22 2 50 16 27 14 64 27
81 29 39 5 45 11 53 54 5 29 4 32 -9 21 -9 -7 -14 -19 -11 -27 4 -9 -4 -13
-29 -13 -33 0 -33 1 -25 30 5 16 11 34 15 40 8 13 -5 12 -28 -1z m6 -96 c-7
-2 -19 -2 -25 0 -7 3 -2 5 12 5 14 0 19 -2 13 -5z"/>
<path d="M787 2714 c4 -12 3 -15 -6 -10 -16 10 -41 -11 -41 -35 0 -24 19 -34
35 -18 17 19 27 66 15 74 -6 4 -7 -1 -3 -11z"/>
<path d="M1030 2712 c-21 -17 -22 -21 -9 -48 17 -34 40 -41 63 -19 18 18 22
60 6 70 -6 3 -7 -1 -4 -9 5 -12 0 -16 -20 -16 -30 0 -34 14 -8 29 9 6 12 11 6
11 -7 0 -22 -8 -34 -18z"/>
<path d="M715 2710 c-3 -6 1 -7 9 -4 18 7 21 14 7 14 -6 0 -13 -4 -16 -10z"/>
<path d="M1037 2555 c-22 -8 -48 -26 -60 -41 -19 -24 -21 -25 -33 -9 -11 15
-13 15 -24 -5 -11 -21 -12 -21 -31 -4 -14 12 -19 13 -19 4 0 -9 -7 -7 -22 6
-28 25 -78 56 -78 49 0 -2 8 -24 17 -47 l18 -43 6 30 6 30 8 -40 c5 -23 4 -55
-3 -79 -8 -31 -7 -46 4 -67 17 -34 28 -38 79 -28 22 5 57 8 77 9 36 0 38 2 44
40 4 22 9 40 12 40 4 0 17 -12 30 -27 l23 -28 -5 47 c-7 59 6 98 34 98 12 0
20 7 20 16 0 9 -6 14 -12 11 -56 -20 -57 -20 -51 17 3 20 4 36 2 35 -2 0 -21
-7 -42 -14z"/>
<path d="M629 2526 c0 -1 -2 -8 -4 -17 -2 -12 3 -15 16 -12 22 6 26 30 4 30
-8 0 -15 -1 -16 -1z"/>
<path d="M460 2480 c0 -5 7 -7 15 -4 8 4 15 8 15 10 0 2 -7 4 -15 4 -8 0 -15
-4 -15 -10z"/>
<path d="M659 2461 c-11 -31 -24 -40 -31 -20 -5 15 -104 -15 -100 -30 1 -6 -2
-11 -8 -11 -5 0 -10 -5 -10 -12 0 -6 3 -8 7 -5 3 4 17 -2 29 -14 28 -27 84
-19 84 12 0 23 16 25 28 3 14 -25 54 31 50 70 -4 43 -35 47 -49 7z"/>
<path d="M4470 2385 c0 -18 19 -40 26 -32 4 4 0 15 -9 24 -9 10 -17 13 -17 8z"/>
<path d="M4390 2365 c0 -8 4 -15 10 -15 5 0 7 7 4 15 -4 8 -8 15 -10 15 -2 0
-4 -7 -4 -15z"/>
<path d="M350 2249 c0 -18 3 -29 7 -26 3 4 12 2 19 -4 11 -9 12 -6 3 20 -15
43 -29 48 -29 10z"/>
<path d="M1216 3146 c3 -9 11 -16 16 -16 13 0 5 23 -10 28 -7 2 -10 -2 -6 -12z"/>
<path d="M1272 3119 c2 -7 12 -13 21 -15 23 -3 21 3 -4 17 -17 8 -20 8 -17 -2z"/>
<path d="M1882 3043 c1 -5 -4 -30 -11 -56 -9 -31 -17 -44 -22 -36 -4 7 -5 17
-3 21 3 4 0 8 -5 8 -15 0 -13 -20 4 -50 23 -40 19 -52 -10 -38 -17 8 -25 19
-25 36 l0 26 -31 -30 c-30 -27 -31 -27 -26 -6 3 12 2 22 -3 22 -4 0 -10 -14
-14 -31 -4 -21 -10 -29 -20 -26 -11 4 -12 0 -7 -21 4 -15 4 -42 -1 -60 -16
-59 -1 -45 16 15 12 40 26 65 46 81 l30 24 0 -26 c0 -15 -6 -26 -13 -26 -17 0
-50 -102 -41 -125 5 -12 -1 -23 -17 -36 -26 -20 -39 -24 -39 -11 0 5 11 15 25
22 14 7 25 18 25 23 0 6 -9 2 -19 -7 -18 -17 -19 -17 -23 1 -2 10 -11 -11 -20
-47 -12 -44 -14 -68 -7 -75 7 -7 8 -4 3 9 -6 15 -4 18 8 13 9 -3 19 0 22 8 3
9 0 12 -10 8 -28 -10 -14 17 17 33 l32 16 -7 -37 c-6 -33 -5 -37 9 -31 9 3 18
6 20 6 2 0 16 41 31 90 23 77 30 90 47 88 13 -2 22 5 28 20 6 15 5 22 -4 22
-9 0 -9 2 0 8 16 10 43 99 36 118 -3 8 0 14 7 14 7 0 10 7 6 15 -3 8 0 15 7
16 7 0 3 4 -8 9 -26 11 -36 12 -33 3z"/>
<path d="M1756 2973 c-6 -14 -5 -15 5 -6 7 7 10 15 7 18 -3 3 -9 -2 -12 -12z"/>
<path d="M1390 2976 c0 -4 6 -14 14 -21 14 -14 26 -10 26 8 0 6 -3 7 -7 4 -3
-4 -12 -2 -20 4 -7 6 -13 8 -13 5z"/>
<path d="M1600 2936 c0 -2 9 -6 20 -9 11 -3 18 -1 14 4 -5 9 -34 13 -34 5z"/>
<path d="M1660 2906 c0 -2 7 -7 16 -10 8 -3 12 -2 9 4 -6 10 -25 14 -25 6z"/>
<path d="M1812 2715 c-24 -30 -28 -45 -12 -45 14 0 43 47 38 61 -2 7 -13 0
-26 -16z"/>
<path d="M1460 2648 l-23 -33 28 27 c16 15 26 30 23 33 -3 4 -16 -9 -28 -27z"/>
<path d="M1710 2530 c8 -5 20 -10 25 -10 6 0 3 5 -5 10 -8 5 -19 10 -25 10 -5
0 -3 -5 5 -10z"/>
<path d="M1665 2500 c3 -6 -1 -7 -9 -4 -13 5 -16 -1 -16 -30 0 -20 5 -36 10
-36 6 0 9 -5 8 -11 -2 -6 3 -14 11 -17 9 -3 11 0 6 7 -5 9 4 11 34 8 40 -4 41
-3 51 35 6 21 8 43 5 48 -3 6 -29 10 -56 10 -31 0 -48 -4 -44 -10z m80 -20 c0
-24 -38 -23 -53 0 -12 20 -11 21 20 18 21 -2 33 -8 33 -18z"/>
</g>
</svg>
